/* XPM */
static char *display_im6_q16[] = {
/* columns rows colors chars-per-pixel */
"32 32 100 2 ",
"   c #FFFF6E5D6E5D",
".  c #FFFF726F726F",
"X  c #FFFF73A573A5",
"o  c #FFFF75C275C2",
"O  c #FFFF7D5F7D5F",
"+  c #FFFF7F797F79",
"@  c #F93EDA9878AB",
"#  c #F98FDC9C7F3E",
"$  c #FFFF80A980A9",
"%  c #FFFF82858285",
"&  c #FFFF835A835A",
"*  c #FFFF85978597",
"=  c #FFFF86D886D8",
"-  c #FFFF87E887E8",
";  c #FFFF89758975",
":  c #FFFF8CEE8CEE",
">  c #FFFF90549054",
",  c #FFFF92749274",
"<  c #FFFF95F295F2",
"1  c #FFFF96C996C9",
"2  c #FFFF99599959",
"3  c #FFFF9ADA9ADA",
"4  c #FFFF9DD29DD2",
"5  c #FFFFA482A482",
"6  c #FFFFA6F8A6F8",
"7  c #FFFFAC16AC16",
"8  c #FFFFACEBACEB",
"9  c #FFFFADDDADDD",
"0  c #F9A7DD1D8121",
"q  c #FA90E210933E",
"w  c #FAEBE4029A66",
"e  c #FB0CE4AA9CE7",
"r  c #FC93ED26BB8C",
"t  c #FCADEDBFBD9E",
"y  c #FCC1EE37BF32",
"u  c #FFFFC104C104",
"i  c #FFFFC1F0C1F0",
"p  c #FFFFC32DC32D",
"a  c #FFFFC71BC71B",
"s  c #FFFFCC4FCC4F",
"d  c #FFFFCE8ACE8A",
"f  c #FFFFCF6ECF6E",
"g  c #FFFFD0AAD0AA",
"h  c #FFFFD82FD82F",
"j  c #FFFFD971D971",
"k  c #FFFFDB7CDB7C",
"l  c #FFFFDCABDCAB",
"z  c #FFFFDF28DF28",
"x  c #FCD1EE78C05F",
"c  c #FD02EF90C43D",
"v  c #FDE3F45ED5C8",
"b  c #FDE9F486D647",
"n  c #FE0EF593D970",
"m  c #FE2EF618DBC5",
"M  c #FE53F6F1DEB4",
"N  c #FE61F71BDFA7",
"B  c #FFFFE108E108",
"V  c #FFFFE28CE28C",
"C  c #FFFFE3C9E3C9",
"Z  c #FFFFE4C7E4C7",
"A  c #FFFFEC4EEC4E",
"S  c #FFFFECB7ECB7",
"D  c #FFFFEE27EE27",
"F  c #FFFFEED4EED4",
"G  c #FE6BF756E07A",
"H  c #FE80F7C7E219",
"J  c #FE85F7EBE286",
"K  c #FEB1F8CCE5DA",
"L  c #FEC9F96CE7DE",
"P  c #FED4F993E8A5",
"I  c #FF0EFAB9ED11",
"U  c #FF27FB83EF44",
"Y  c #FFFFF07FF07F",
"T  c #FFFFF1C9F1C9",
"R  c #FFFFF321F321",
"E  c #FFFFF7E2F7E2",
"W  c #FF41FBF8F139",
"Q  c #FF47FC0DF199",
"!  c #FF53FC4EF28B",
"~  c #FF64FCA6F3D7",
"^  c #FF6EFCEEF4BC",
"/  c #FF7DFD26F5BD",
"(  c #FF83FD48F63E",
")  c #FF8DFD95F726",
"_  c #FF95FDC8F7C6",
"`  c #FFFFF9EAF9EA",
"'  c #FFFFFA98FA98",
"]  c #FFFFFBFAFBFA",
"[  c #FFA4FE1BF8ED",
"{  c #FFB4FE6AFA29",
"}  c #FFBFFEA6FB05",
"|  c #FFCAFEE3FBDE",
" . c #FFFFFD36FD36",
".. c #FFFFFDD6FDD6",
"X. c #FFD8FF29FCF6",
"o. c #FFE1FF60FDAF",
"O. c #FFFFFF04FF04",
"+. c #FFF3FFC1FF1B",
"@. c #FFFFFFFEFFFD",
"#. c None",
/* pixels */
"#.@.@.@.@.@.@.@.@.@.@.@.@.@.@.@.@.@.@.@.@.@.@.@.@.@.@.@.@.@.@.@.",
"#.@.@.@.@.@.@.@.@.@.@.@.@.@.@.@.@.@.@.@.@.@.@.@.@.@.@.@.@.@.@.@.",
"#.@.@.@.@.@.@.@.@.Z l j R ] ] E @.@.@.@.@.@.@.@.@.@.@.@.@.@.@.@.",
"#.@.@.@.@.@.@.R E , X O X 1 , 7 j S E @.@.@.@.@.@.@.@.@.@.@.@.@.",
"#.@.@.@.@.] z $ 7 u > 6 1 - o ; 4 $ s @.@.@.@.@.@.@.@.@.@.! @.@.",
"#.@.@.@.@.f $ - f ] ] @.@.C C S u : h @.@.@.@.@.@.@.@.} r K @.@.",
"#.@.@.@.a   ; 9 @.@.@.@.@.@.@.@.@.] ] @.@.@.@.@.@.} ) } b } @.@.",
"#.@.@.S 1 $ S ] @.@.) ( @.@.@.@.@.@.@.@.@.@.@.@.) # t J } @.@.@.",
"#.@.@.9 - C @.@.@.@.! b @.@.@.@.@.@.@.@.@.@.@.@.! 0 t I @.@.@.@.",
"#.@.C 3 5 ] @.@.@.@.@.x } @.@.@.@.@.@.@.@.@.n ) ) ) ) ) @.@.@.@.",
"#.@.R 9 f @.@.@.@.@.@.M J @.@.@.@.@.@.@.@.I @ ! J M } @.@.@.@.@.",
"#.@.@.@.@.@.@.@.@.@.@.} x } @.@.@.@.@.@.@.} w q q e P @.@.@.@.@.",
"#.@.@.@.@.@.@.@.@.@.@.@.K b @.@.@.@.@.@.} } ) ! ! P ) @.@.@.@.@.",
"#.@.@.@.@.@.@.@.@.@.@.@.@.! @.@.@.@.@.@.@.@.@.@.@.} @.@.@.@.@.@.",
"#.@.@.@.@.@.@.@.@.@.@.@.@.@.@.@.@.@.@.@.@.@.@.@.@.@.@.@.@.@.@.@.",
"#.@.@.@.@.@.@.@.@.@.@.@.@.@.@.@.@.@.@.@.@.@.@.@.@.@.@.@.@.@.@.@.",
"#.@.@.@.@.@.@.@.@.@.@.@.@.@.@.@.@.@.@.@.@.@.@.@.@.@.@.@.@.@.@.@.",
"#.@.@.@.@.@.@.@.@.@.@.@.@.@.@.@.@.@.@.@.@.@.@.@.@.@.@.@.@.@.@.@.",
"#.@.@.@.@.@.@.@.@.@.@.@.@.@.@.@.@.@.@.@.@.@.@.@.@.@.@.@.@.@.@.@.",
"#.@.@.@.@.@.@.@.@.@.@.@.@.@.@.@.@.@.@.@.@.@.@.@.@.@.@.@.@.@.@.@.",
"#.@.@.@.@.@.@.@.@.@.@.@.@.@.@.@.@.@.@.@.@.@.@.@.@.@.@.@.@.@.@.@.",
"#.@.@.@.@.@.@.@.@.@.@.@.@.@.@.@.@.@.@.@.@.@.@.@.@.@.@.@.@.@.@.@.",
"#.@.@.@.@.@.@.@.@.@.@.@.@.@.@.@.@.@.@.@.@.@.@.@.@.@.@.@.@.@.@.@.",
"#.@.@.@.@.@.@.@.@.@.@.@.@.@.@.@.@.@.@.@.@.@.@.@.@.@.@.@.@.@.@.@.",
"#.@.@.@.@.@.@.@.@.@.@.@.@.@.@.@.@.@.@.@.@.@.@.@.@.@.@.@.@.@.@.@.",
"#.@.@.@.@.@.@.@.@.@.@.@.@.@.@.@.@.@.@.@.@.@.@.@.@.@.@.@.@.@.@.@.",
"#.@.@.@.@.@.@.@.@.@.@.@.@.@.@.@.@.@.@.@.@.@.@.@.@.@.@.@.@.@.@.@.",
"#.@.@.@.@.@.@.@.@.@.@.@.@.@.@.@.@.@.@.@.@.@.@.@.@.@.@.@.@.@.@.@.",
"#.@.@.@.@.@.@.@.@.@.@.@.@.@.@.@.@.@.@.@.@.@.@.@.@.@.@.@.@.@.@.@.",
"#.@.@.@.@.@.@.@.@.@.@.@.@.@.@.@.@.@.@.@.@.@.@.@.@.@.@.@.@.@.@.@.",
"#.@.@.@.@.@.@.@.@.@.@.@.@.@.@.@.@.@.@.@.@.@.@.@.@.@.@.@.@.@.@.@.",
"#.@.@.@.@.@.@.@.@.@.@.@.@.@.@.@.@.@.@.@.@.@.@.@.@.@.@.@.@.@.@.@."
};
